<svg viewBox="0 0 58 58" xmlns="http://www.w3.org/2000/svg"><path d="M25 9.586C11.193 9.586 0 19.621 0 32c0 4.562 1.524 8.803 4.135 12.343C3.792 48.433 2.805 54.194 0 57c0 0 8.47-1.191 14.273-4.651.006-.004.009-.01.014-.013 1.794-1.106 3.809-2.397 4.302-2.783a1.001 1.001 0 011.328-.271c.298.181.487.512.488.86.003.582-.008.744-3.651 3.018a27.52 27.52 0 008.245 1.254c13.807 0 25-10.035 25-22.414S38.807 9.586 25 9.586z" fill="#0391fd"/><path d="M58 23.414C58 11.035 46.807 1 33 1c-9.97 0-18.575 5.234-22.589 12.804C14.518 11.153 19.553 9.586 25 9.586c13.807 0 25 10.035 25 22.414 0 4.735-1.642 9.124-4.437 12.743C51.162 47.448 58 48.414 58 48.414c-2.805-2.805-3.792-8.566-4.135-12.657C56.476 32.217 58 27.976 58 23.414z" fill="#0f71d3"/><path d="M32.5 26h-14a1 1 0 110-2h14a1 1 0 110 2zM38 33H13a1 1 0 110-2h25a1 1 0 110 2zM38 40H13a1 1 0 110-2h25a1 1 0 110 2z" fill="#fff"/></svg>